<svg width="27" height="27" viewBox="0 0 27 27" fill="none" xmlns="http://www.w3.org/2000/svg">
<path d="M25.875 1.125H21.375L18.36 16.1888C18.2571 16.7067 17.9754 17.172 17.564 17.5031C17.1527 17.8342 16.638 18.0101 16.11 18H5.175C4.64704 18.0101 4.13233 17.8342 3.72099 17.5031C3.30965 17.172 3.02788 16.7067 2.925 16.1888L1.125 6.75H20.25M15.75 23.625C15.75 24.2463 16.2537 24.75 16.875 24.75C17.4963 24.75 18 24.2463 18 23.625C18 23.0037 17.4963 22.5 16.875 22.5C16.2537 22.5 15.75 23.0037 15.75 23.625ZM3.375 23.625C3.375 24.2463 3.87868 24.75 4.5 24.75C5.12132 24.75 5.625 24.2463 5.625 23.625C5.625 23.0037 5.12132 22.5 4.5 22.5C3.87868 22.5 3.375 23.0037 3.375 23.625Z" stroke="black" stroke-width="2" stroke-linecap="round" stroke-linejoin="round"/>
</svg>
